<?xml version="1.0" encoding="UTF-8" standalone="no"?>
<!-- Created with Inkscape (http://www.inkscape.org/) -->

<svg
   xmlns:dc="http://purl.org/dc/elements/1.1/"
   xmlns:cc="http://creativecommons.org/ns#"
   xmlns:rdf="http://www.w3.org/1999/02/22-rdf-syntax-ns#"
   xmlns:svg="http://www.w3.org/2000/svg"
   xmlns="http://www.w3.org/2000/svg"
   xmlns:sodipodi="http://sodipodi.sourceforge.net/DTD/sodipodi-0.dtd"
   xmlns:inkscape="http://www.inkscape.org/namespaces/inkscape"
   width="80mm"
   height="50mm"
   viewBox="0 0 80 50"
   version="1.1"
   id="svg8"
   inkscape:version="0.92.2 (5c3e80d, 2017-08-06)"
   sodipodi:docname="phytree_icon.svg">
  <defs
     id="defs2" />
  <sodipodi:namedview
     id="base"
     pagecolor="#ffffff"
     bordercolor="#666666"
     borderopacity="1.0"
     inkscape:pageopacity="0.0"
     inkscape:pageshadow="2"
     inkscape:zoom="1"
     inkscape:cx="272.92857"
     inkscape:cy="308.57143"
     inkscape:document-units="mm"
     inkscape:current-layer="layer1"
     showgrid="false"
     inkscape:snap-global="false"
     inkscape:window-width="1920"
     inkscape:window-height="1002"
     inkscape:window-x="0"
     inkscape:window-y="0"
     inkscape:window-maximized="1" />
  <metadata
     id="metadata5">
    <rdf:RDF>
      <cc:Work
         rdf:about="">
        <dc:format>image/svg+xml</dc:format>
        <dc:type
           rdf:resource="http://purl.org/dc/dcmitype/StillImage" />
        <dc:title></dc:title>
      </cc:Work>
    </rdf:RDF>
  </metadata>
  <g
     inkscape:label="Layer 1"
     inkscape:groupmode="layer"
     id="layer1"
     transform="translate(0,-247)">
    <g
       id="g722"
       transform="translate(-49.741666,238.38958)">
      <g
         transform="translate(-1.1907654)"
         id="g673">
        <g
           id="g592"
           transform="matrix(0.10957328,0,0,0.08893228,85.815321,11.686064)"
           style="stroke-width:10.13019848">
          <path
             id="path12"
             d="m 78.720779,131.71423 c -0.04241,-0.0231 -0.08198,-0.0549 -0.115964,-0.0939 -0.03303,-0.0384 -0.80944,-0.95025 -0.62337,-2.15039 0.153689,-0.99234 0.902901,-1.83593 2.226901,-2.50852 13.202386,-8.56171 45.885054,-13.83116 46.213504,-13.88337 0.23229,-0.016 5.12506,-0.29595 6.78164,0.85231 1.52898,1.07925 5.73422,1.72181 5.77358,1.72715 0.13816,0.0215 0.25858,0.12078 0.31723,0.26545 0.0592,0.14355 0.0502,0.31046 -0.0257,0.44079 -1.10904,1.90672 -2.3725,5.0019 -1.70833,5.91133 0.0929,0.1279 0.11899,0.3014 0.0677,0.45395 -0.0511,0.1525 -0.17105,0.26024 -0.31531,0.282 l -58.362139,8.74559 c -0.07895,0.0115 -0.159112,-0.004 -0.229732,-0.0424 z m 53.907801,-17.11224 c -1.65549,-0.90312 -6.06559,-0.6218 -6.11018,-0.61933 -0.29442,0.0484 -32.827115,5.29324 -45.933356,13.79046 -1.087972,0.55478 -1.701735,1.19284 -1.809601,1.86434 -0.08046,0.5025 0.134534,0.94949 0.279555,1.18291 l 57.594762,-8.63087 c -0.40322,-1.67141 0.90312,-4.42226 1.60975,-5.73811 -1.28417,-0.23623 -4.18807,-0.84691 -5.46835,-1.7498 -0.0502,-0.0346 -0.10468,-0.068 -0.16258,-0.0996"
             inkscape:connector-curvature="0"
             style="fill:#1a1919;stroke-width:2.68028235" />
          <path
             id="path16"
             d="m 130.3788,110.28737 c -0.52826,-0.28818 -1.04709,-0.64985 -1.54129,-1.07434 -0.17464,-0.15054 -0.21494,-0.42811 -0.0914,-0.62696 1.57355,-2.52503 4.43318,-8.50259 5.17208,-14.894032 0.86786,-7.51018 7.03873,-17.680678 16.76578,-21.736675 2.98014,-1.242614 6.41823,-0.945977 9.67936,0.833055 4.26036,2.324139 7.18725,6.663959 7.28418,10.800389 0.0617,2.581684 -0.91337,6.257713 -5.90471,9.112131 -1.75932,1.587677 -5.13675,4.089902 -8.4035,6.509837 -4.08578,3.027485 -8.30817,6.155865 -9.49817,7.577465 -0.26911,1.42204 -1.65692,3.26979 -3.04506,4.02385 -0.56638,0.30728 -0.91682,0.32128 -1.32193,0.33832 -0.62318,0.0252 -1.47648,0.0596 -3.95582,1.19994 -0.2024,0.0934 -0.43521,-0.0141 -0.5256,-0.2445 -0.0362,-0.0919 -0.14748,-0.45595 0.067,-1.05483 -1.05084,0.21389 -2.76529,0.28138 -4.68093,-0.76365 z m -0.74699,-1.53528 c 0.35255,0.27594 0.71612,0.51721 1.0841,0.71795 2.75676,1.50389 5.06803,0.41811 5.0915,0.40696 0.17181,-0.0839 0.37387,-0.0202 0.48718,0.1544 0.11274,0.17287 0.10574,0.4091 -0.017,0.56775 -0.18118,0.23443 -0.30192,0.43411 -0.38289,0.5988 2.09602,-0.89829 2.94956,-0.93327 3.53297,-0.95693 0.36772,-0.0148 0.59006,-0.0238 1.00746,-0.25084 1.19239,-0.64832 2.47291,-2.34954 2.63421,-3.50068 0.0113,-0.0841 0.0447,-0.16192 0.0942,-0.22507 1.15056,-1.46505 5.31498,-4.55081 9.72471,-7.81775 3.25191,-2.409168 6.61448,-4.900529 8.41317,-6.511198 3.72709,-2.141882 5.62022,-5.009916 5.54142,-8.341827 -0.0894,-3.798214 -2.82804,-7.812015 -6.81665,-9.98791 -3.06043,-1.669548 -6.27509,-1.952698 -9.04928,-0.796382 -9.43891,3.936009 -15.42245,13.76774 -16.26066,21.019658 -0.72474,6.270479 -3.43572,12.150879 -5.0845,14.923069 z m 11.35252,-12.959643 c -1.35709,-0.740327 -2.25297,-1.840326 -2.59096,-3.181539 -0.40879,-1.620126 0.008,-3.500854 1.23679,-5.589565 4.45802,-7.575814 10.78824,-11.473041 16.51999,-10.171132 0.79088,0.179659 1.5442,0.463239 2.23975,0.842679 2.75355,1.502136 4.05482,4.131569 4.09781,5.938422 0.0235,0.977632 -0.32461,1.746032 -0.95379,2.10788 -3.4519,2.291293 -6.59762,4.578712 -9.12518,6.417386 -2.56601,1.865848 -4.59193,3.340107 -5.90413,4.070721 -1.30952,0.730777 -3.7342,0.539504 -5.52028,-0.434852 z M 158.0528,78.510218 c -0.6329,-0.34526 -1.32117,-0.603551 -2.04421,-0.768023 -5.40929,-1.229305 -11.42699,2.524003 -15.70494,9.794331 -1.09524,1.860405 -1.47772,3.489711 -1.13646,4.843029 0.34287,1.360721 1.36108,2.162869 2.15425,2.595565 1.74688,0.952969 3.85934,0.967396 4.81538,0.43458 1.27169,-0.708476 3.28107,-2.170648 5.8263,-4.020795 2.53315,-1.842977 5.68659,-4.136265 9.17246,-6.450538 0.49961,-0.287008 0.55633,-0.938612 0.54753,-1.302062 -0.0376,-1.58358 -1.29728,-3.853353 -3.63031,-5.126087"
             inkscape:connector-curvature="0"
             style="fill:#1a1919;stroke-width:2.68028235" />
          <path
             id="path20"
             d="m 86.994898,153.11189 c -5.19e-4,-2.8e-4 -5.19e-4,-2.8e-4 -5.19e-4,-2.8e-4 -0.753447,-0.41103 -1.329859,-1.16928 -1.35428,-1.20158 -0.07029,-0.0928 -0.10549,-0.21256 -0.09753,-0.33263 0.0074,-0.12039 0.05764,-0.23125 0.138062,-0.308 0.350266,-0.33361 35.040289,-33.35483 37.730099,-35.82181 2.70747,-2.48641 3.83093,-3.99602 5.63698,-6.99967 0.0805,-0.13366 0.21864,-0.20676 0.3628,-0.19205 0.14475,0.0164 0.27149,0.11597 0.33414,0.26377 0.056,0.1324 0.23044,0.39849 0.76639,0.69015 1.32108,0.72069 3.8601,1.03186 5.65835,0.2782 0.16623,-0.0701 0.35525,-0.006 0.46459,0.15441 0.10926,0.16077 0.11432,0.38188 0.0111,0.54378 -1.47286,2.30789 -1.99733,5.03045 -2.34474,7.62781 -0.35929,2.71743 -1.98277,3.82333 -2.29989,4.01491 -1.63465,1.58512 -29.8097,28.7377 -43.61801,31.47965 -0.38687,0.1463 -0.871468,0.0849 -1.387526,-0.19666 z m -0.459681,-1.45433 c 0.198879,0.20693 0.482664,0.46505 0.79647,0.63624 l 5.19e-4,2.8e-4 c 0.321163,0.1752 0.60385,0.22007 0.841212,0.13346 13.762832,-2.73758 43.035632,-31.0421 43.329612,-31.32767 0.0257,-0.0246 0.0547,-0.0458 0.0843,-0.0624 0.0649,-0.0359 1.59065,-0.90913 1.91675,-3.3777 0.31294,-2.3403 0.76736,-4.78251 1.89728,-6.99071 -2.29947,0.49115 -4.98695,-0.17308 -5.98822,-1.19726 -1.68422,2.75713 -2.85899,4.2729 -5.48668,6.6872 -2.54419,2.33318 -33.820388,32.10004 -37.391213,35.49859"
             inkscape:connector-curvature="0"
             style="fill:#1a1919;stroke-width:2.68028235" />
          <path
             id="path22"
             d="m 130.50023,116.75024 c 0.67813,1.19433 0.17322,2.71178 -1.11861,3.39017 -1.28812,0.67556 -2.87152,0.26649 -3.54976,-0.91189 -0.67821,-1.18489 -0.19242,-2.70328 1.09529,-3.39353 1.29415,-0.69042 2.89496,-0.28217 3.57308,0.91525"
             inkscape:connector-curvature="0"
             style="fill:#acacac;stroke-width:2.68028235" />
          <path
             id="path24"
             d="m 126.6047,120.55102 c -0.46457,-0.25344 -0.8483,-0.62727 -1.10889,-1.08017 -0.35971,-0.62924 -0.46331,-1.36688 -0.29112,-2.07765 0.20143,-0.83383 0.76383,-1.55221 1.54368,-1.97015 0.94639,-0.50452 2.05748,-0.50823 2.97181,-0.009 0.46985,0.25631 0.85635,0.63604 1.11751,1.09731 0.35762,0.62941 0.45786,1.36724 0.28195,2.07752 -0.20635,0.83624 -0.77559,1.55244 -1.56184,1.96534 -0.94115,0.49362 -2.04509,0.49258 -2.9531,-0.003 z m 2.7781,-4.31941 c -0.68551,-0.37396 -1.55811,-0.36835 -2.27767,0.0155 -0.57279,0.30687 -0.98209,0.81831 -1.1239,1.40322 -0.11228,0.46475 -0.0475,0.92731 0.18748,1.33703 0.54501,0.94773 1.97628,1.29563 3.03725,0.74 0.57827,-0.30447 0.9935,-0.81434 1.13853,-1.40093 0.11449,-0.46366 0.0514,-0.92585 -0.18195,-1.33626 -0.1781,-0.31539 -0.44794,-0.57752 -0.77974,-0.75853"
             inkscape:connector-curvature="0"
             style="fill:#1a1919;stroke-width:2.68028235" />
          <path
             id="path26"
             d="m 130.09119,116.02933 c 0.67774,1.19554 0.17495,2.71711 -1.11604,3.39679 -1.287,0.67902 -2.87409,0.26936 -3.55237,-0.91201 -0.68141,-1.18663 -0.19206,-2.70747 1.09217,-3.39879 1.29302,-0.69388 2.89903,-0.28564 3.57624,0.91401"
             inkscape:connector-curvature="0"
             style="fill:#acacac;stroke-width:2.68028235" />
          <path
             id="path28"
             d="m 126.19731,119.83895 c -0.46569,-0.25404 -0.84962,-0.6287 -1.11094,-1.08342 -0.3599,-0.62697 -0.46426,-1.36432 -0.29315,-2.0758 0.20063,-0.83627 0.76298,-1.55634 1.54228,-1.97601 0.94617,-0.5076 2.05835,-0.51214 2.97536,-0.0119 0.47097,0.25693 0.85738,0.63661 1.11835,1.09837 0.35767,0.63109 0.45758,1.37099 0.28155,2.08335 -0.20691,0.83605 -0.77506,1.55272 -1.55943,1.96594 -0.94011,0.49573 -2.04454,0.49561 -2.95402,-5.4e-4 z m 2.77636,-4.3296 c -0.68707,-0.37481 -1.56066,-0.36832 -2.2799,0.0178 -0.57275,0.30831 -0.98281,0.8216 -1.12317,1.40789 -0.11217,0.46575 -0.0469,0.92759 0.18842,1.33754 0.54731,0.95349 1.98001,1.29921 3.03971,0.74075 0.57742,-0.30422 0.991,-0.81499 1.13628,-1.40216 0.11533,-0.46545 0.0525,-0.92967 -0.18123,-1.34239 -0.17867,-0.31582 -0.4483,-0.57843 -0.78011,-0.75944"
             inkscape:connector-curvature="0"
             style="fill:#1a1919;stroke-width:2.68028235" />
          <path
             id="path30"
             d="m 128.16868,115.77363 c -1.94052,0.5858 -1.45402,2.49714 -0.75079,2.57086 -1.93891,1.02989 -2.328,-2.91225 0.75079,-2.57086"
             inkscape:connector-curvature="0"
             style="fill:#ffffff;stroke-width:2.68028235" />
          <path
             id="path38"
             d="m 139.43092,94.203284 c -0.0579,-0.03158 -0.10993,-0.07894 -0.15061,-0.13968 -0.85705,-1.281029 -1.44609,-3.542917 0.61444,-7.042261 4.45802,-7.575814 10.78824,-11.473041 16.51999,-10.171132 0.79088,0.179659 1.54317,0.462672 2.23768,0.841546 2.3712,1.293554 3.60214,3.412352 3.96145,4.963263 0.23569,1.011916 0.14825,1.905075 -0.24536,2.51546 -0.0834,0.129782 -0.22197,0.197591 -0.36496,0.178527 -0.14452,-0.01847 -0.26746,-0.121117 -0.32723,-0.269479 -0.85035,-2.09821 -2.89115,-3.817569 -5.31303,-4.379843 -5.14101,-1.192182 -10.64731,2.437811 -15.10717,9.958186 -0.67798,1.139221 -1.10211,2.22408 -1.26042,3.226353 -0.0278,0.176136 -0.14583,0.315509 -0.30111,0.3545 -0.0901,0.02284 -0.18301,0.0086 -0.26367,-0.03544 z m 18.88411,-15.693522 c -0.63185,-0.344692 -1.31984,-0.603661 -2.04185,-0.767567 -5.40929,-1.229305 -11.42699,2.524003 -15.70494,9.794331 -1.16515,1.977989 -1.53372,3.66944 -1.10252,5.046322 0.24301,-0.786348 0.61361,-1.593355 1.11952,-2.443128 4.64591,-7.834216 10.45026,-11.600015 15.92433,-10.330867 2.30087,0.536939 4.30271,2.022754 5.42806,3.952892 0.006,-0.270913 -0.0275,-0.573853 -0.10139,-0.892868 -0.31359,-1.349727 -1.40375,-3.203985 -3.52121,-4.359115"
             inkscape:connector-curvature="0"
             style="fill:#1a1919;stroke-width:2.68028235" />
          <path
             id="path40"
             d="m 142.80731,108.32348 c -0.0149,-0.008 -0.0295,-0.0168 -0.0434,-0.0274 -0.18943,-0.13678 -0.24745,-0.41868 -0.13059,-0.62926 0.38031,-0.68251 0.43035,-1.39374 0.47949,-2.08068 0.0644,-0.90644 0.13069,-1.84316 0.96561,-2.50823 0.18065,-0.14446 0.43154,-0.0906 0.56191,0.11381 0.13064,0.20659 0.0905,0.49022 -0.0894,0.63294 -0.50972,0.40662 -0.57176,0.94182 -0.63571,1.85361 -0.0537,0.75796 -0.11548,1.6171 -0.59678,2.48457 -0.10886,0.19454 -0.32848,0.26022 -0.51109,0.1606"
             inkscape:connector-curvature="0"
             style="fill:#1a1919;stroke-width:2.68028235" />
          <path
             id="path42"
             d="m 139.95388,110.77901 c -0.0138,-0.008 -0.0285,-0.0163 -0.0424,-0.0268 -0.45457,-0.32649 -0.58004,-0.73841 -0.60659,-1.02721 -0.0677,-0.75361 0.41953,-1.62582 1.57795,-2.82898 0.93435,-0.97245 1.50035,-1.32583 2.0175,-1.26134 0.3316,0.0412 0.62452,0.26147 0.88953,0.67229 0.13285,0.20484 0.0949,0.48907 -0.0833,0.63418 -0.18029,0.14691 -0.43255,0.0959 -0.5631,-0.10783 -0.18094,-0.28051 -0.27949,-0.29063 -0.31429,-0.29444 -0.23756,-0.0299 -0.70737,0.31778 -1.39507,1.03256 -1.20591,1.25221 -1.35006,1.84153 -1.32807,2.08124 0.008,0.0857 0.0406,0.20125 0.22717,0.33575 0.18959,0.13616 0.24793,0.41753 0.1322,0.62872 -0.1081,0.19578 -0.329,0.26148 -0.5116,0.16186"
             inkscape:connector-curvature="0"
             style="fill:#1a1919;stroke-width:2.68028235" />
          <path
             id="path56"
             d="m 136.9882,124.22227 c -0.0477,-0.026 -0.0903,-0.0616 -0.12737,-0.10732 -1.13504,-1.41441 -0.01,-5.29137 2.61787,-9.01849 0.0543,-0.078 0.13098,-0.13147 0.21607,-0.15503 0.14153,-0.037 14.17965,-3.80473 23.21963,-7.88057 0.88904,-0.36703 1.7232,-0.71822 2.5224,-1.0535 7.15356,-3.0064 11.47253,-4.82029 16.45501,-2.10222 1.10221,0.60129 2.21733,1.41112 3.40622,2.47443 3.30974,2.95741 4.85885,6.96333 4.25022,10.9906 -0.77386,5.1216 -4.88659,9.45359 -11.00287,11.58806 -11.40157,3.98302 -23.90787,0.0404 -32.39181,-3.96864 -2.17088,-0.71639 -5.35711,-0.71837 -8.43804,-0.72042 l -0.55111,-9.4e-4 c -0.0612,6e-5 -0.12092,-0.0158 -0.17622,-0.046 z m 3.04155,-8.43073 c -2.4769,3.55803 -3.12391,6.59006 -2.67099,7.56701 l 0.33945,2.8e-4 c 3.13916,0.003 6.384,0.005 8.70934,0.77544 8.40223,3.96727 20.71303,7.857 31.88528,3.95418 5.82877,-2.03371 9.73892,-6.10511 10.46233,-10.88977 0.55634,-3.68612 -0.88184,-7.37108 -3.9473,-10.11006 -1.14138,-1.02068 -2.20631,-1.79436 -3.2534,-2.36557 -4.67126,-2.5483 -8.63205,-0.8839 -15.82317,2.13771 -0.79958,0.33649 -1.63648,0.68762 -2.51596,1.0505 -8.61009,3.88232 -21.72221,7.48309 -23.18558,7.88028 z m 19.77925,7.51281 c -1.87964,-1.02539 -3.02466,-2.54796 -3.14205,-4.17777 -0.10427,-1.45033 0.59489,-2.80796 1.96785,-3.82494 0.0295,-0.0211 0.0601,-0.0385 0.0936,-0.0501 l 17.93563,-6.64768 c 3.67029,-0.69225 6.05675,0.85785 8.23619,5.02273 0.75406,2.18978 0.57462,4.08842 -0.50201,5.71454 -3.1596,4.76833 -13.46191,5.99439 -19.76841,5.34162 -1.8798,-0.19528 -3.50197,-0.65894 -4.8208,-1.3784 z m -0.76515,-7.20625 c -1.09388,0.82588 -1.65337,1.87983 -1.57404,2.9745 0.0927,1.29198 1.06769,2.53617 2.67654,3.41384 1.23073,0.6714 2.7584,1.10533 4.53997,1.28995 5.94703,0.61596 16.11827,-0.54474 19.06402,-4.99019 0.91472,-1.38189 1.05595,-2.94498 0.42964,-4.779 -1.94224,-3.68999 -4.09287,-5.11786 -7.30979,-4.52186 l -17.82634,6.61276"
             inkscape:connector-curvature="0"
             style="fill:#1a1919;stroke-width:2.68028235" />
        </g>
        <path
           inkscape:connector-curvature="0"
           style="font-style:normal;font-weight:normal;font-size:medium;font-family:'Abyssinica SIL';color-interpolation:auto;fill:none;fill-opacity:1;stroke:#000000;stroke-width:0.26458332;stroke-linecap:round;stroke-linejoin:round;stroke-miterlimit:10;stroke-dasharray:none;stroke-dashoffset:0;stroke-opacity:1;color-rendering:auto;image-rendering:auto;shape-rendering:auto;text-rendering:optimizeLegibility"
           d="m 79.185246,30.035642 3.601641,0.129631"
           id="path252" />
        <path
           inkscape:connector-curvature="0"
           style="font-style:normal;font-weight:normal;font-size:medium;font-family:'Abyssinica SIL';color-interpolation:auto;fill:none;fill-opacity:1;stroke:#000000;stroke-width:0.26458332;stroke-linecap:round;stroke-linejoin:round;stroke-miterlimit:10;stroke-dasharray:none;stroke-dashoffset:0;stroke-opacity:1;color-rendering:auto;image-rendering:auto;shape-rendering:auto;text-rendering:optimizeLegibility"
           d="m 81.754615,40.354572 0.648361,-4.181825"
           id="path254" />
        <path
           inkscape:connector-curvature="0"
           style="font-style:normal;font-weight:normal;font-size:medium;font-family:'Abyssinica SIL';color-interpolation:auto;fill:none;fill-opacity:1;stroke:#000000;stroke-width:0.26458332;stroke-linecap:round;stroke-linejoin:round;stroke-miterlimit:10;stroke-dasharray:none;stroke-dashoffset:0;stroke-opacity:1;color-rendering:auto;image-rendering:auto;shape-rendering:auto;text-rendering:optimizeLegibility"
           d="M 85.603085,23.376598 84.455508,25.83499"
           id="path258" />
        <path
           inkscape:connector-curvature="0"
           style="font-style:normal;font-weight:normal;font-size:medium;font-family:'Abyssinica SIL';color-interpolation:auto;fill:none;fill-opacity:1;stroke:#000000;stroke-width:0.26458332;stroke-linecap:round;stroke-linejoin:round;stroke-miterlimit:10;stroke-dasharray:none;stroke-dashoffset:0;stroke-opacity:1;color-rendering:auto;image-rendering:auto;shape-rendering:auto;text-rendering:optimizeLegibility"
           d="M 81.978664,33.466933 83.47221,31.583477"
           id="path262" />
        <path
           inkscape:connector-curvature="0"
           style="font-style:normal;font-weight:normal;font-size:medium;font-family:'Abyssinica SIL';color-interpolation:auto;fill:none;fill-opacity:1;stroke:#000000;stroke-width:0.26458332;stroke-linecap:round;stroke-linejoin:round;stroke-miterlimit:10;stroke-dasharray:none;stroke-dashoffset:0;stroke-opacity:1;color-rendering:auto;image-rendering:auto;shape-rendering:auto;text-rendering:optimizeLegibility"
           d="M 87.76997,26.883627 94.110048,26.19324"
           id="path264" />
        <path
           inkscape:connector-curvature="0"
           style="font-style:normal;font-weight:normal;font-size:medium;font-family:'Abyssinica SIL';color-interpolation:auto;fill:none;fill-opacity:1;stroke:#000000;stroke-width:0.26458332;stroke-linecap:round;stroke-linejoin:round;stroke-miterlimit:10;stroke-dasharray:none;stroke-dashoffset:0;stroke-opacity:1;color-rendering:auto;image-rendering:auto;shape-rendering:auto;text-rendering:optimizeLegibility"
           d="m 69.505888,28.148068 9.679358,1.887574"
           id="path266" />
        <path
           inkscape:connector-curvature="0"
           style="font-style:normal;font-weight:normal;font-size:medium;font-family:'Abyssinica SIL';color-interpolation:auto;fill:none;fill-opacity:1;stroke:#000000;stroke-width:0.26458332;stroke-linecap:round;stroke-linejoin:round;stroke-miterlimit:10;stroke-dasharray:none;stroke-dashoffset:0;stroke-opacity:1;color-rendering:auto;image-rendering:auto;shape-rendering:auto;text-rendering:optimizeLegibility"
           d="m 79.370005,35.134234 2.608659,-1.667301"
           id="path270" />
        <path
           inkscape:connector-curvature="0"
           style="font-style:normal;font-weight:normal;font-size:medium;font-family:'Abyssinica SIL';color-interpolation:auto;fill:none;fill-opacity:1;stroke:#000000;stroke-width:0.26458332;stroke-linecap:round;stroke-linejoin:round;stroke-miterlimit:10;stroke-dasharray:none;stroke-dashoffset:0;stroke-opacity:1;color-rendering:auto;image-rendering:auto;shape-rendering:auto;text-rendering:optimizeLegibility"
           d="M 93.754633,33.270643 86.468061,32.455979"
           id="path274" />
        <path
           inkscape:connector-curvature="0"
           style="font-style:normal;font-weight:normal;font-size:medium;font-family:'Abyssinica SIL';color-interpolation:auto;fill:none;fill-opacity:1;stroke:#000000;stroke-width:0.26458332;stroke-linecap:round;stroke-linejoin:round;stroke-miterlimit:10;stroke-dasharray:none;stroke-dashoffset:0;stroke-opacity:1;color-rendering:auto;image-rendering:auto;shape-rendering:auto;text-rendering:optimizeLegibility"
           d="M 70.417272,46.42427 79.370005,35.134234"
           id="path276" />
        <path
           inkscape:connector-curvature="0"
           style="font-style:normal;font-weight:normal;font-size:medium;font-family:'Abyssinica SIL';color-interpolation:auto;fill:none;fill-opacity:1;stroke:#000000;stroke-width:0.26458332;stroke-linecap:round;stroke-linejoin:round;stroke-miterlimit:10;stroke-dasharray:none;stroke-dashoffset:0;stroke-opacity:1;color-rendering:auto;image-rendering:auto;shape-rendering:auto;text-rendering:optimizeLegibility"
           d="M 83.47221,31.583477 82.786887,30.165273"
           id="path278" />
        <path
           inkscape:connector-curvature="0"
           style="font-style:normal;font-weight:normal;font-size:medium;font-family:'Abyssinica SIL';color-interpolation:auto;fill:none;fill-opacity:1;stroke:#000000;stroke-width:0.26458332;stroke-linecap:round;stroke-linejoin:round;stroke-miterlimit:10;stroke-dasharray:none;stroke-dashoffset:0;stroke-opacity:1;color-rendering:auto;image-rendering:auto;shape-rendering:auto;text-rendering:optimizeLegibility"
           d="M 110.72878,29.609727 94.109474,26.458635"
           id="path282" />
        <path
           inkscape:connector-curvature="0"
           style="font-style:normal;font-weight:normal;font-size:medium;font-family:'Abyssinica SIL';color-interpolation:auto;fill:none;fill-opacity:1;stroke:#000000;stroke-width:0.26458332;stroke-linecap:round;stroke-linejoin:round;stroke-miterlimit:10;stroke-dasharray:none;stroke-dashoffset:0;stroke-opacity:1;color-rendering:auto;image-rendering:auto;shape-rendering:auto;text-rendering:optimizeLegibility"
           d="M 89.580208,13.504194 88.5232,19.695004"
           id="path284" />
        <path
           inkscape:connector-curvature="0"
           style="font-style:normal;font-weight:normal;font-size:medium;font-family:'Abyssinica SIL';color-interpolation:auto;fill:none;fill-opacity:1;stroke:#000000;stroke-width:0.26458332;stroke-linecap:round;stroke-linejoin:round;stroke-miterlimit:10;stroke-dasharray:none;stroke-dashoffset:0;stroke-opacity:1;color-rendering:auto;image-rendering:auto;shape-rendering:auto;text-rendering:optimizeLegibility"
           d="m 69.034083,41.143499 6.528065,-4.172334"
           id="path288" />
        <path
           inkscape:connector-curvature="0"
           style="font-style:normal;font-weight:normal;font-size:medium;font-family:'Abyssinica SIL';color-interpolation:auto;fill:none;fill-opacity:1;stroke:#000000;stroke-width:0.26458332;stroke-linecap:round;stroke-linejoin:round;stroke-miterlimit:10;stroke-dasharray:none;stroke-dashoffset:0;stroke-opacity:1;color-rendering:auto;image-rendering:auto;shape-rendering:auto;text-rendering:optimizeLegibility"
           d="m 65.807622,27.070985 3.698266,1.077083"
           id="path290" />
        <g
           id="g515"
           transform="matrix(0.62622009,0,0,0.62860359,45.888579,-9.7532133)"
           style="stroke-width:1.59385228">
          <path
             id="path286"
             d="M 115.68995,51.343396 95.162948,54.953069"
             style="font-style:normal;font-weight:normal;font-size:medium;font-family:'Abyssinica SIL';color-interpolation:auto;fill:none;fill-opacity:1;stroke:#000000;stroke-width:0.42170674;stroke-linecap:round;stroke-linejoin:round;stroke-miterlimit:10;stroke-dasharray:none;stroke-dashoffset:0;stroke-opacity:1;color-rendering:auto;image-rendering:auto;shape-rendering:auto;text-rendering:optimizeLegibility"
             inkscape:connector-curvature="0" />
          <path
             id="path292"
             d="M 108.53667,47.115975 95.163038,54.953286"
             style="font-style:normal;font-weight:normal;font-size:medium;font-family:'Abyssinica SIL';color-interpolation:auto;fill:none;fill-opacity:1;stroke:#000000;stroke-width:0.42170674;stroke-linecap:round;stroke-linejoin:round;stroke-miterlimit:10;stroke-dasharray:none;stroke-dashoffset:0;stroke-opacity:1;color-rendering:auto;image-rendering:auto;shape-rendering:auto;text-rendering:optimizeLegibility"
             inkscape:connector-curvature="0" />
        </g>
        <path
           inkscape:connector-curvature="0"
           style="font-style:normal;font-weight:normal;font-size:medium;font-family:'Abyssinica SIL';color-interpolation:auto;fill:none;fill-opacity:1;stroke:#000000;stroke-width:0.26458332;stroke-linecap:round;stroke-linejoin:round;stroke-miterlimit:10;stroke-dasharray:none;stroke-dashoffset:0;stroke-opacity:1;color-rendering:auto;image-rendering:auto;shape-rendering:auto;text-rendering:optimizeLegibility"
           d="m 84.455508,25.83499 0.291438,1.858516"
           id="path294" />
        <path
           inkscape:connector-curvature="0"
           style="font-style:normal;font-weight:normal;font-size:medium;font-family:'Abyssinica SIL';color-interpolation:auto;fill:none;fill-opacity:1;stroke:#000000;stroke-width:0.26458332;stroke-linecap:round;stroke-linejoin:round;stroke-miterlimit:10;stroke-dasharray:none;stroke-dashoffset:0;stroke-opacity:1;color-rendering:auto;image-rendering:auto;shape-rendering:auto;text-rendering:optimizeLegibility"
           d="m 75.562148,36.971165 3.807857,-1.836931"
           id="path296" />
        <path
           inkscape:connector-curvature="0"
           style="font-style:normal;font-weight:normal;font-size:medium;font-family:'Abyssinica SIL';color-interpolation:auto;fill:none;fill-opacity:1;stroke:#000000;stroke-width:0.26458332;stroke-linecap:round;stroke-linejoin:round;stroke-miterlimit:10;stroke-dasharray:none;stroke-dashoffset:0;stroke-opacity:1;color-rendering:auto;image-rendering:auto;shape-rendering:auto;text-rendering:optimizeLegibility"
           d="m 95.141487,14.336915 -6.618769,5.357674"
           id="path298" />
        <path
           inkscape:connector-curvature="0"
           style="font-style:normal;font-weight:normal;font-size:medium;font-family:'Abyssinica SIL';color-interpolation:auto;fill:none;fill-opacity:1;stroke:#000000;stroke-width:0.26458332;stroke-linecap:round;stroke-linejoin:round;stroke-miterlimit:10;stroke-dasharray:none;stroke-dashoffset:0;stroke-opacity:1;color-rendering:auto;image-rendering:auto;shape-rendering:auto;text-rendering:optimizeLegibility"
           d="M 105.58664,33.69653 93.754633,33.270643"
           id="path300" />
        <path
           inkscape:connector-curvature="0"
           style="font-style:normal;font-weight:normal;font-size:medium;font-family:'Abyssinica SIL';color-interpolation:auto;fill:none;fill-opacity:1;stroke:#000000;stroke-width:0.26458332;stroke-linecap:round;stroke-linejoin:round;stroke-miterlimit:10;stroke-dasharray:none;stroke-dashoffset:0;stroke-opacity:1;color-rendering:auto;image-rendering:auto;shape-rendering:auto;text-rendering:optimizeLegibility"
           d="m 82.786887,30.165273 1.960059,-2.471767"
           id="path304" />
        <path
           inkscape:connector-curvature="0"
           style="font-style:normal;font-weight:normal;font-size:medium;font-family:'Abyssinica SIL';color-interpolation:auto;fill:none;fill-opacity:1;stroke:#000000;stroke-width:0.26458332;stroke-linecap:round;stroke-linejoin:round;stroke-miterlimit:10;stroke-dasharray:none;stroke-dashoffset:0;stroke-opacity:1;color-rendering:auto;image-rendering:auto;shape-rendering:auto;text-rendering:optimizeLegibility"
           d="M 84.746946,27.693506 87.76997,26.883627"
           id="path306" />
        <path
           inkscape:connector-curvature="0"
           style="font-style:normal;font-weight:normal;font-size:medium;font-family:'Abyssinica SIL';color-interpolation:auto;fill:none;fill-opacity:1;stroke:#000000;stroke-width:0.26458332;stroke-linecap:round;stroke-linejoin:round;stroke-miterlimit:10;stroke-dasharray:none;stroke-dashoffset:0;stroke-opacity:1;color-rendering:auto;image-rendering:auto;shape-rendering:auto;text-rendering:optimizeLegibility"
           d="m 65.101396,31.569262 14.08385,-1.53362"
           id="path308" />
        <path
           inkscape:connector-curvature="0"
           style="font-style:normal;font-weight:normal;font-size:medium;font-family:'Abyssinica SIL';color-interpolation:auto;fill:none;fill-opacity:1;stroke:#000000;stroke-width:0.26458332;stroke-linecap:round;stroke-linejoin:round;stroke-miterlimit:10;stroke-dasharray:none;stroke-dashoffset:0;stroke-opacity:1;color-rendering:auto;image-rendering:auto;shape-rendering:auto;text-rendering:optimizeLegibility"
           d="M 98.602911,22.938961 87.76997,26.883627"
           id="path310" />
        <path
           inkscape:connector-curvature="0"
           style="font-style:normal;font-weight:normal;font-size:medium;font-family:'Abyssinica SIL';color-interpolation:auto;fill:none;fill-opacity:1;stroke:#000000;stroke-width:0.26458332;stroke-linecap:round;stroke-linejoin:round;stroke-miterlimit:10;stroke-dasharray:none;stroke-dashoffset:0;stroke-opacity:1;color-rendering:auto;image-rendering:auto;shape-rendering:auto;text-rendering:optimizeLegibility"
           d="M 93.567334,36.475851 86.468061,32.455979"
           id="path312" />
        <path
           inkscape:connector-curvature="0"
           style="font-style:normal;font-weight:normal;font-size:medium;font-family:'Abyssinica SIL';color-interpolation:auto;fill:none;fill-opacity:1;stroke:#000000;stroke-width:0.26458332;stroke-linecap:round;stroke-linejoin:round;stroke-miterlimit:10;stroke-dasharray:none;stroke-dashoffset:0;stroke-opacity:1;color-rendering:auto;image-rendering:auto;shape-rendering:auto;text-rendering:optimizeLegibility"
           d="M 86.468061,32.455979 83.47221,31.583477"
           id="path314" />
        <path
           inkscape:connector-curvature="0"
           style="font-style:normal;font-weight:normal;font-size:medium;font-family:'Abyssinica SIL';color-interpolation:auto;fill:none;fill-opacity:1;stroke:#000000;stroke-width:0.26458332;stroke-linecap:round;stroke-linejoin:round;stroke-miterlimit:10;stroke-dasharray:none;stroke-dashoffset:0;stroke-opacity:1;color-rendering:auto;image-rendering:auto;shape-rendering:auto;text-rendering:optimizeLegibility"
           d="m 88.522789,19.694661 -2.919704,3.681937"
           id="path318" />
        <path
           inkscape:connector-curvature="0"
           style="font-style:normal;font-weight:normal;font-size:medium;font-family:'Abyssinica SIL';color-interpolation:auto;fill:none;fill-opacity:1;stroke:#000000;stroke-width:0.26458332;stroke-linecap:round;stroke-linejoin:round;stroke-miterlimit:10;stroke-dasharray:none;stroke-dashoffset:0;stroke-opacity:1;color-rendering:auto;image-rendering:auto;shape-rendering:auto;text-rendering:optimizeLegibility"
           d="M 82.402976,36.172747 81.978664,33.466933"
           id="path320" />
        <path
           inkscape:connector-curvature="0"
           style="font-style:normal;font-weight:normal;font-size:medium;font-family:'Abyssinica SIL';color-interpolation:auto;fill:none;fill-opacity:1;stroke:#000000;stroke-width:0.26458332;stroke-linecap:round;stroke-linejoin:round;stroke-miterlimit:10;stroke-dasharray:none;stroke-dashoffset:0;stroke-opacity:1;color-rendering:auto;image-rendering:auto;shape-rendering:auto;text-rendering:optimizeLegibility"
           d="m 63.463334,27.472478 6.042554,0.67559"
           id="path322" />
        <path
           inkscape:connector-curvature="0"
           style="font-style:normal;font-weight:normal;font-size:medium;font-family:'Abyssinica SIL';color-interpolation:auto;fill:none;fill-opacity:1;stroke:#000000;stroke-width:0.26458332;stroke-linecap:round;stroke-linejoin:round;stroke-miterlimit:10;stroke-dasharray:none;stroke-dashoffset:0;stroke-opacity:1;color-rendering:auto;image-rendering:auto;shape-rendering:auto;text-rendering:optimizeLegibility"
           d="m 76.750418,19.701571 7.70509,6.133419"
           id="path326" />
      </g>
      <text
         id="text627"
         y="54.112499"
         x="52.652088"
         style="font-style:normal;font-weight:normal;font-size:6.3499999px;line-height:1.25;font-family:sans-serif;letter-spacing:0px;word-spacing:0px;writing-mode:lr-tb;fill:#000000;fill-opacity:1;stroke:none;stroke-width:0.26458332"
         xml:space="preserve"><tspan
           style="writing-mode:lr-tb;stroke-width:0.26458332"
           y="54.112499"
           x="52.652088"
           id="tspan625"
           sodipodi:role="line">Phycologenic Collpaser</tspan></text>
    </g>
  </g>
</svg>
